<svg width="13" height="9" viewBox="0 0 13 9" fill="none" xmlns="http://www.w3.org/2000/svg">
<path d="M10.3122 0.491C10.299 0.491 8.32411 0.793814 7.25768 0.701653C6.59938 0.662156 6.02009 0.517331 5.46712 0.385673C5.37496 0.359341 5.29596 0.346175 5.21697 0.319843H5.19064C4.03204 0.0301947 3.0446 -0.206791 1.84651 0.280346C1.10922 0.596327 0.529925 1.17562 0.227111 1.89975C-0.0757037 2.62387 -0.0757037 3.44015 0.227111 4.16427C0.701082 5.3097 1.82018 5.99433 2.97877 5.99433C3.36058 5.99433 3.75556 5.91533 4.1242 5.75734C4.86149 5.45453 5.38812 4.92789 5.62511 4.29593C5.67777 4.15111 5.71727 3.99312 5.73044 3.84829C5.7436 3.71663 5.73044 3.57181 5.7041 3.44015C5.66461 3.25583 5.62511 3.07151 5.54611 2.88719C5.42762 2.51854 5.16431 2.22889 4.84832 2.04457C4.69033 1.96558 4.50601 1.91291 4.33486 1.88658C4.15054 1.87341 3.97938 1.89975 3.80822 1.95241C3.46591 2.0709 3.17626 2.29472 2.91294 2.55804L2.68913 2.38688C2.83395 2.22889 2.99194 2.09723 3.1631 1.97874C3.33425 1.87341 3.53174 1.78125 3.72923 1.72859C3.92671 1.67593 4.15053 1.66276 4.34802 1.68909C4.55868 1.72859 4.84832 1.82075 5.08531 1.96558C5.34863 2.13673 5.62511 2.51854 5.7436 2.86085C5.76993 2.95301 5.79627 3.05834 5.8226 3.16367C6.20441 3.16367 6.98119 3.08467 8.17929 2.51854C9.14039 2.05774 10.4438 0.793814 10.457 0.780648L10.8388 0.412005L10.3122 0.491Z" fill="#DBDBDB"/>
<path d="M1.9385 8.50903C1.95167 8.50903 3.92654 8.20621 4.99298 8.29837C5.65127 8.33787 6.23057 8.4827 6.78353 8.61435C6.87569 8.64069 6.95469 8.65385 7.03368 8.68018H7.06002C8.21861 8.96983 9.20605 9.20682 10.4041 8.71968C11.1414 8.41687 11.7207 7.83757 12.0235 7.11345C12.3264 6.38933 12.3264 5.57305 12.0235 4.84893C11.5496 3.71667 10.4436 3.01888 9.27188 3.03204C8.89007 3.03204 8.49509 3.11104 8.12645 3.26903C7.38916 3.57184 6.86253 4.09848 6.62554 4.73044C6.57288 4.87526 6.53338 5.03325 6.52022 5.17807C6.50705 5.30973 6.52022 5.45456 6.54655 5.58621C6.58605 5.77054 6.62554 5.95486 6.70454 6.13918C6.82303 6.50782 7.08635 6.79747 7.40233 6.98179C7.56032 7.06079 7.74464 7.11345 7.9158 7.13978C8.10012 7.15295 8.27127 7.12662 8.44243 7.07395C8.78474 6.95546 9.07439 6.73164 9.33771 6.46832L9.56153 6.63948C9.4167 6.79747 9.25871 6.92913 9.08756 7.04762C8.9164 7.15295 8.71891 7.24511 8.52143 7.29777C8.32394 7.35044 8.10012 7.3636 7.90263 7.33727C7.69198 7.29777 7.40233 7.20561 7.16534 7.06079C6.90203 6.88963 6.62554 6.50782 6.50705 6.16551C6.48072 6.07335 6.45439 5.96802 6.42805 5.8627C6.04625 5.8627 5.26946 5.94169 4.07137 6.50782C3.11026 6.96863 1.80684 8.23255 1.79368 8.24571L1.41187 8.61435L1.9385 8.50903Z" fill="#DBDBDB"/>
</svg>
