<svg width="12" height="11" viewBox="0 0 12 11" fill="none" xmlns="http://www.w3.org/2000/svg">
<path d="M0 5.77275C0 4.64308 0.915781 3.72729 2.04545 3.72729C3.17513 3.72729 4.09091 4.64308 4.09091 5.77275V8.42949C4.09091 8.46844 4.05933 8.50002 4.02038 8.50002H0.0705328C0.0315786 8.50002 0 8.46844 0 8.42949V5.77275Z" fill="#B7B7B7"/>
<circle cx="2.04546" cy="2.36364" r="1.36364" fill="#B7B7B7"/>
<path d="M7.36365 5.77275C7.36365 4.64308 8.27943 3.72729 9.4091 3.72729C10.5388 3.72729 11.4546 4.64308 11.4546 5.77275V8.42949C11.4546 8.46844 11.423 8.50002 11.384 8.50002H7.43418C7.39523 8.50002 7.36365 8.46844 7.36365 8.42949V5.77275Z" fill="#B7B7B7"/>
<circle cx="9.40911" cy="2.36364" r="1.36364" fill="#B7B7B7"/>
<path d="M3.27274 6.72725C3.27274 5.37164 4.37167 4.27271 5.72728 4.27271C7.08289 4.27271 8.18183 5.37164 8.18183 6.72725V9.91534C8.18183 9.96208 8.14393 9.99998 8.09719 9.99998H3.35738C3.31063 9.99998 3.27274 9.96208 3.27274 9.91534V6.72725Z" fill="#B7B7B7" stroke="white"/>
<circle cx="5.72728" cy="2.63636" r="1.63636" fill="#B7B7B7" stroke="white"/>
</svg>
