<svg width="14" height="10" viewBox="0 0 14 10" fill="none" xmlns="http://www.w3.org/2000/svg">
<path d="M7.07944 0.0845947C4.32192 0.0845947 2.08209 2.28251 2.08209 5.00002C2.08209 7.71233 4.31664 9.91544 7.07944 9.91544C9.83696 9.91544 12.0768 7.71753 12.0768 5.00002C12.0768 2.28251 9.83696 0.0845947 7.07944 0.0845947ZM7.68694 8.35144C7.54431 8.49173 7.34357 8.56448 7.08472 8.56448C6.82059 8.56448 6.61457 8.49693 6.47194 8.35664C6.32931 8.22154 6.25535 8.02409 6.25535 7.77468C6.25535 7.51488 6.32402 7.31743 6.46665 7.18753C6.60928 7.05244 6.81531 6.99009 7.08472 6.99009C7.34357 6.99009 7.54959 7.05763 7.69222 7.19273C7.83485 7.32783 7.9088 7.52528 7.9088 7.77468C7.90352 8.0189 7.83485 8.21115 7.68694 8.35144ZM7.6975 6.1899H6.4825L6.05989 2.46437C6.0282 2.0279 6.49835 1.66418 7.09 1.66418C7.68165 1.66418 8.1518 2.0279 8.12011 2.46437L7.6975 6.1899Z" fill="#DBDBDB"/>
<path d="M1.81224 1.19143C1.62735 1.07192 1.38435 1.12388 1.26285 1.30574C0.539129 2.4021 0.158783 3.68031 0.158783 5.0001C0.158783 6.31988 0.539129 7.5981 1.26285 8.69446C1.3368 8.80877 1.46358 8.87112 1.59565 8.87112C1.66961 8.87112 1.74356 8.85034 1.81224 8.80877C1.99713 8.68926 2.04996 8.45025 1.92846 8.26839C1.28926 7.29673 0.951174 6.1692 0.951174 5.0001C0.951174 3.831 1.28926 2.69827 1.92846 1.73181C2.04996 1.54995 1.99713 1.30574 1.81224 1.19143Z" fill="#DBDBDB"/>
<path d="M12.3466 1.19143C12.1617 1.31093 12.1088 1.54995 12.2303 1.73181C12.8695 2.70346 13.2076 3.831 13.2076 5.0001C13.2076 6.1692 12.8695 7.30193 12.2303 8.26839C12.1088 8.45025 12.1617 8.68926 12.3466 8.80877C12.4152 8.85034 12.4892 8.87112 12.5631 8.87112C12.6952 8.87112 12.822 8.80877 12.8959 8.69446C13.6197 7.5981 14 6.31988 14 5.0001C14 3.68031 13.6197 2.4021 12.8959 1.30574C12.7744 1.12388 12.5314 1.07192 12.3466 1.19143Z" fill="#DBDBDB"/>
</svg>
